<svg xmlns="http://www.w3.org/2000/svg" xmlns:xlink="http://www.w3.org/1999/xlink" width="300" height="80" viewBox="0 0 300 80"><defs><style>.a{fill:#fff;}.b{fill:#ff0048;}.c{fill:url(#a);}.d{mask:url(#b);}.e{fill:#1111f8;}.f{fill:#11f;}</style><linearGradient id="a" x1="1.74" y1="-587.69" x2="48.58" y2="-587.69" gradientTransform="matrix(1, 0, 0, -1, 0, -548)" gradientUnits="userSpaceOnUse"><stop offset="0" stop-color="#fae4ea"/><stop offset="1" stop-color="#f5f5ff"/></linearGradient><mask id="b" x="-6.81" y="8.15" width="63.87" height="62.85" maskUnits="userSpaceOnUse"><ellipse class="a" cx="25.16" cy="39.69" rx="23.42" ry="23.05"/></mask></defs><title>repo-headers</title><ellipse class="b" cx="23.42" cy="42.25" rx="23.42" ry="23.05"/><ellipse class="c" cx="25.16" cy="39.69" rx="23.42" ry="23.05"/><g class="d"><polygon class="e" points="23.86 71 22.63 69.79 55.83 37.12 57.05 38.33 23.86 71"/><polygon class="e" points="18.95 66.17 17.72 64.96 50.92 32.3 52.15 33.5 18.95 66.17"/><polygon class="e" points="14.04 61.34 12.81 60.14 46.01 27.47 47.24 28.67 14.04 61.34"/><polygon class="e" points="9.13 56.51 7.91 55.31 41.11 22.64 42.33 23.84 9.13 56.51"/><polygon class="e" points="4.23 51.69 3 50.48 36.2 17.81 37.43 19.02 4.23 51.69"/><polygon class="e" points="-0.68 46.86 -1.91 45.65 31.29 12.98 32.52 14.19 -0.68 46.86"/><polygon class="e" points="-5.59 42.03 -6.82 40.82 26.39 8.15 27.61 9.36 -5.59 42.03"/></g><rect class="f" x="61" y="18" width="57" height="19" rx="4.27"/><path class="a" d="M67.69,32.77l3.43-10.66h3.13l3.42,10.66H74.94l-.69-2.46H70.94l-.69,2.46Zm4.86-8.37-1.13,4.06h2.37L72.67,24.4Z"/><path class="a" d="M85.92,28.79V22.11h2.56v7C88.48,31.44,86.75,33,84,33s-4.46-1.53-4.46-3.89v-7h2.56v6.68a1.8,1.8,0,0,0,1.9,2A1.82,1.82,0,0,0,85.92,28.79Z"/><path class="a" d="M93.29,32.77V24.21H90.38v-2.1h8.37v2.1h-2.9v8.56Z"/><path class="a" d="M107.27,32.77V28.4h-3.93v4.37h-2.57V22.11h2.57v4.21h3.93V22.11h2.57V32.77Z"/><path d="M60.63,58.39l4.48-13.33h3.08l4.46,13.33H69.84L68.8,55H64.34l-1,3.43Zm5.89-10.78L64.89,53h3.38l-1.63-5.39Z"/><path d="M83.67,58.39H81.16V56.66H81a3.05,3.05,0,0,1-3,1.89c-2.06,0-3.47-1-3.47-3.5V48h2.57v6.35c0,1.59.92,2,1.87,2a2.1,2.1,0,0,0,2.15-2.14V48h2.57Z"/><path d="M87.52,45.55H90v2.58h2.29v2H90v5c0,1,.43,1.35,1.5,1.35.32,0,.71,0,.89,0v1.9a10.94,10.94,0,0,1-1.51.11c-2.58,0-3.44-.87-3.44-3V50.1H85.89v-2h1.63Z"/><path d="M94.87,44.36h2.56v5.5h.14a3,3,0,0,1,3.08-2c2,0,3.44,1.2,3.44,3.61v6.92h-2.57V52.18c0-1.53-.84-2.16-1.9-2.16-1.35,0-2.19,1.06-2.19,2.63v5.74H94.87Z"/><path d="M106.61,53.82V52.59a4.59,4.59,0,1,1,9.17,0v1.19h-6.65v.49a2.13,2.13,0,0,0,2.2,2.32c1,0,1.79-.5,1.91-1.15h2.44c-.1,1.29-1.38,3.14-4.34,3.14A4.37,4.37,0,0,1,106.61,53.82Zm6.68-1.6v-.11a2.09,2.09,0,1,0-4.16,0v.11Z"/><path d="M118.33,48h2.51v1.83H121a2.93,2.93,0,0,1,3.08-2c2.08,0,3.46,1.19,3.46,3.59v6.94h-2.57V52.17c0-1.53-.81-2.15-1.86-2.15-1.39,0-2.18,1.07-2.18,2.63v5.74h-2.57Z"/><path d="M131.22,45.55h2.5v2.58H136v2h-2.3v5c0,1,.43,1.35,1.5,1.35.33,0,.71,0,.89,0v1.9a10.8,10.8,0,0,1-1.51.11c-2.58,0-3.44-.87-3.44-3V50.1h-1.57v-2h1.63Z"/><path d="M140,43.54A1.44,1.44,0,1,1,138.39,45,1.45,1.45,0,0,1,140,43.54ZM138.72,48h2.57V58.39h-2.57Z"/><path d="M144.07,52.52a4.34,4.34,0,0,1,4.61-4.68c2.71,0,4.24,1.65,4.28,3.62h-2.37a1.7,1.7,0,0,0-1.84-1.55c-1.35,0-2.09,1-2.09,2.65v1.25c0,1.68.78,2.71,2.1,2.71a1.61,1.61,0,0,0,1.86-1.47H153c0,2-1.49,3.53-4.32,3.53s-4.61-1.82-4.61-4.76Z"/><path d="M154.92,55.38c0-1.85,1.29-3.08,3.69-3.08h2.53v-.93c0-1-.67-1.54-1.73-1.54s-1.55.46-1.68,1.1H155.3c.12-1.7,1.33-3.07,4.17-3.07,2.33,0,4.22.94,4.22,3.57v7h-2.43V57.07h-.12a3,3,0,0,1-2.81,1.48A3.1,3.1,0,0,1,154.92,55.38Zm6.22-.46V53.85h-2c-1.14,0-1.68.58-1.68,1.37a1.5,1.5,0,0,0,1.69,1.43A1.83,1.83,0,0,0,161.14,54.92Z"/><path d="M167.37,45.55h2.5v2.58h2.3v2h-2.3v5c0,1,.43,1.35,1.51,1.35.32,0,.7,0,.89,0v1.9a11.12,11.12,0,0,1-1.52.11c-2.58,0-3.44-.87-3.44-3V50.1h-1.57v-2h1.63Z"/><path d="M176.15,43.54A1.44,1.44,0,1,1,174.54,45,1.45,1.45,0,0,1,176.15,43.54ZM174.87,48h2.57V58.39h-2.57Z"/><path d="M189.71,52.6v1.16A4.42,4.42,0,0,1,185,58.58c-2.87,0-4.76-1.72-4.76-4.82V52.62A4.5,4.5,0,0,1,185,47.84,4.45,4.45,0,0,1,189.71,52.6Zm-6.89.07v1.07c0,1.56.68,2.84,2.16,2.84s2.13-1.27,2.13-2.84V52.67c0-1.57-.7-2.83-2.13-2.83S182.82,51.11,182.82,52.67Z"/><path d="M192.29,48h2.51v1.83h.13a3,3,0,0,1,3.09-2c2.08,0,3.45,1.19,3.45,3.59v6.94h-2.56V52.17c0-1.53-.81-2.15-1.87-2.15-1.39,0-2.18,1.07-2.18,2.63v5.74h-2.57Z"/><path d="M210.8,54.76c.18,1,1.17,1.8,2.74,1.8s2.51-.76,2.51-1.85c0-.93-.66-1.41-2.05-1.73l-2.06-.48c-2.07-.47-3.38-1.66-3.38-3.68,0-2.44,2.05-4,5-4s4.81,1.71,4.94,3.76H216a2.23,2.23,0,0,0-2.45-1.69c-1.46,0-2.33.75-2.33,1.79,0,.8.66,1.32,1.83,1.58l2.07.48c2.16.48,3.58,1.52,3.58,3.76,0,2.48-1.9,4.18-5.28,4.18s-5-1.78-5.15-3.89Z"/><path d="M220.75,53.82V52.59a4.59,4.59,0,1,1,9.17,0v1.19h-6.65v.49a2.13,2.13,0,0,0,2.2,2.32c1.05,0,1.8-.5,1.91-1.15h2.44c-.1,1.29-1.38,3.14-4.34,3.14A4.37,4.37,0,0,1,220.75,53.82Zm6.68-1.6v-.11a2.09,2.09,0,1,0-4.16,0v.11Z"/><path d="M232.57,48h2.57v1.62h.12a2.62,2.62,0,0,1,2.62-1.78,4,4,0,0,1,.81.07v2.23a4.29,4.29,0,0,0-1-.09,2.22,2.22,0,0,0-2.48,2.38v5.93h-2.63Z"/><path d="M239.9,48h2.81l2,8h.1l2.27-8h2.71l-3.63,10.36h-2.86Z"/><path d="M253.23,43.54A1.44,1.44,0,1,1,251.62,45,1.45,1.45,0,0,1,253.23,43.54ZM252,48h2.57V58.39H252Z"/><path d="M257.3,52.52a4.34,4.34,0,0,1,4.61-4.68c2.71,0,4.24,1.65,4.28,3.62h-2.37A1.7,1.7,0,0,0,262,49.91c-1.35,0-2.09,1-2.09,2.65v1.25c0,1.68.78,2.71,2.1,2.71a1.63,1.63,0,0,0,1.87-1.47h2.37c0,2-1.48,3.53-4.32,3.53s-4.61-1.82-4.61-4.76Z"/><path d="M268.21,53.82V52.59a4.59,4.59,0,1,1,9.17,0v1.19h-6.65v.49a2.13,2.13,0,0,0,2.2,2.32c1.05,0,1.8-.5,1.91-1.15h2.45c-.11,1.29-1.39,3.14-4.35,3.14A4.37,4.37,0,0,1,268.21,53.82Zm6.68-1.6v-.11a2.09,2.09,0,1,0-4.16,0v.11Z"/></svg>