<svg xmlns="http://www.w3.org/2000/svg" xmlns:xlink="http://www.w3.org/1999/xlink" width="300" height="80" viewBox="0 0 300 80"><defs><style>.a{fill:#fff;}.b{fill:#ff0048;}.c{fill:url(#a);}.d{mask:url(#b);}.e{fill:#1111f8;}.f{fill:#11f;}</style><linearGradient id="a" x1="1.74" y1="-2083.69" x2="48.58" y2="-2083.69" gradientTransform="matrix(1, 0, 0, -1, 0, -2044)" gradientUnits="userSpaceOnUse"><stop offset="0" stop-color="#fae4ea"/><stop offset="1" stop-color="#f5f5ff"/></linearGradient><mask id="b" x="-6.81" y="8.15" width="63.87" height="62.85" maskUnits="userSpaceOnUse"><ellipse class="a" cx="25.16" cy="39.69" rx="23.42" ry="23.05"/></mask></defs><title>repo-headers</title><ellipse class="b" cx="23.42" cy="42.25" rx="23.42" ry="23.05"/><ellipse class="c" cx="25.16" cy="39.69" rx="23.42" ry="23.05"/><g class="d"><polygon class="e" points="23.86 71 22.63 69.79 55.83 37.12 57.05 38.33 23.86 71"/><polygon class="e" points="18.95 66.17 17.72 64.96 50.92 32.3 52.15 33.5 18.95 66.17"/><polygon class="e" points="14.04 61.34 12.81 60.14 46.01 27.47 47.24 28.67 14.04 61.34"/><polygon class="e" points="9.13 56.51 7.91 55.31 41.11 22.64 42.33 23.84 9.13 56.51"/><polygon class="e" points="4.23 51.69 3 50.48 36.2 17.81 37.43 19.02 4.23 51.69"/><polygon class="e" points="-0.68 46.86 -1.91 45.65 31.29 12.98 32.52 14.19 -0.68 46.86"/><polygon class="e" points="-5.59 42.03 -6.82 40.82 26.39 8.15 27.61 9.36 -5.59 42.03"/></g><rect class="f" x="61" y="18" width="49" height="19" rx="4.27"/><path class="a" d="M75.51,32.77H68.65V22.11h2.57v8.52h4.29Z"/><path class="a" d="M77.68,32.77V22.11h2.57V32.77Z"/><path class="a" d="M83.21,32.77V22.11h2l4.27,6.33h.1V22.11H92V32.77H90l-4.29-6.4h-.1v6.4Z"/><path class="a" d="M100.37,26.73l3.84,6h-3l-2.69-4.34-.95,1.11v3.23H95V22.11h2.57v4.54h.11l3.68-4.54h2.74Z"/><path d="M70.19,58.39H61.9V45.06h2.64V56.15h5.65Z"/><path d="M73.86,43.54A1.44,1.44,0,1,1,72.25,45,1.46,1.46,0,0,1,73.86,43.54ZM72.58,48h2.57V58.39H72.58Z"/><path d="M78.41,48h2.51v1.83H81a3,3,0,0,1,3.09-2c2.08,0,3.46,1.19,3.46,3.59v6.94H85V52.17c0-1.53-.81-2.15-1.87-2.15C81.77,50,81,51.09,81,52.65v5.74H78.41Z"/><path d="M93.19,58.39H90.61v-14h2.58v8h.12L96.77,48h2.9L95.89,52.5l4,5.89h-3l-3-4.42-.74.82Z"/><path d="M108.18,54.76c.18,1,1.17,1.8,2.75,1.8s2.51-.76,2.51-1.85c0-.93-.67-1.41-2-1.73l-2.06-.48C107.25,52,106,50.84,106,48.82c0-2.44,2-4,5-4s4.8,1.71,4.93,3.76h-2.5a2.23,2.23,0,0,0-2.45-1.69c-1.46,0-2.33.75-2.33,1.79,0,.8.66,1.32,1.83,1.58l2.07.48c2.16.48,3.58,1.52,3.58,3.76,0,2.48-1.9,4.18-5.28,4.18s-5-1.78-5.15-3.89Z"/><path d="M118.65,44.36h2.56v5.5h.14a3,3,0,0,1,3.08-2c2,0,3.44,1.2,3.44,3.61v6.92H125.3V52.18c0-1.53-.84-2.16-1.9-2.16-1.35,0-2.19,1.06-2.19,2.63v5.74h-2.56Z"/><path d="M139.87,52.6v1.16c0,3.08-1.89,4.82-4.72,4.82s-4.76-1.72-4.76-4.82V52.62a4.5,4.5,0,0,1,4.76-4.78A4.44,4.44,0,0,1,139.87,52.6Zm-6.88.07v1.07c0,1.56.67,2.84,2.16,2.84s2.13-1.27,2.13-2.84V52.67c0-1.57-.71-2.83-2.13-2.83S133,51.11,133,52.67Z"/><path d="M142.56,48h2.57v1.62h.12a2.62,2.62,0,0,1,2.62-1.78,4,4,0,0,1,.81.07v2.23a4.29,4.29,0,0,0-1-.09,2.22,2.22,0,0,0-2.48,2.38v5.93h-2.63Z"/><path d="M152,45.55h2.5v2.58h2.3v2h-2.3v5c0,1,.43,1.35,1.51,1.35.32,0,.7,0,.89,0v1.9a11.12,11.12,0,0,1-1.52.11c-2.58,0-3.44-.87-3.44-3V50.1h-1.57v-2H152Z"/><path d="M158.79,53.82V52.59a4.59,4.59,0,1,1,9.17,0v1.19h-6.65v.49a2.13,2.13,0,0,0,2.2,2.32c1.05,0,1.79-.5,1.91-1.15h2.44c-.11,1.29-1.39,3.14-4.34,3.14A4.36,4.36,0,0,1,158.79,53.82Zm6.68-1.6v-.11a2.09,2.09,0,1,0-4.16,0v.11Z"/><path d="M170.51,48H173v1.83h.12a3,3,0,0,1,3.09-2c2.08,0,3.46,1.19,3.46,3.59v6.94h-2.57V52.17c0-1.53-.81-2.15-1.87-2.15-1.38,0-2.17,1.07-2.17,2.63v5.74h-2.57Z"/><path d="M184.17,43.54A1.44,1.44,0,1,1,182.56,45,1.45,1.45,0,0,1,184.17,43.54ZM182.89,48h2.57V58.39h-2.57Z"/><path d="M188.72,48h2.51v1.83h.13a2.93,2.93,0,0,1,3.08-2c2.08,0,3.46,1.19,3.46,3.59v6.94h-2.57V52.17c0-1.53-.81-2.15-1.86-2.15-1.39,0-2.18,1.07-2.18,2.63v5.74h-2.57Z"/><path d="M207.34,58V56.58h-.12a3,3,0,0,1-2.9,1.62c-2.28,0-3.93-1.64-3.93-4.58V52.49c0-3,1.64-4.6,3.93-4.6a3,3,0,0,1,3,1.73h.12V48h2.52V58.19c0,3-2.34,4-4.89,4-3,0-4.32-1.43-4.41-3h2.5c.13.67.88,1.12,2,1.12A2,2,0,0,0,207.34,58ZM203,52.71v.81c0,1.71.92,2.75,2.21,2.75s2.1-1.1,2.1-2.56V52.53c0-1.47-.8-2.59-2.11-2.59S203,51,203,52.71Z"/><path d="M219.17,54.76c.18,1,1.17,1.8,2.74,1.8s2.51-.76,2.51-1.85c0-.93-.66-1.41-2-1.73l-2.06-.48c-2.07-.47-3.38-1.66-3.38-3.68,0-2.44,2-4,5-4s4.81,1.71,4.94,3.76h-2.5a2.24,2.24,0,0,0-2.46-1.69c-1.45,0-2.32.75-2.32,1.79,0,.8.65,1.32,1.83,1.58l2.07.48c2.15.48,3.58,1.52,3.58,3.76,0,2.48-1.9,4.18-5.28,4.18s-5-1.78-5.15-3.89Z"/><path d="M229.12,53.82V52.59a4.59,4.59,0,1,1,9.17,0v1.19h-6.65v.49a2.13,2.13,0,0,0,2.2,2.32c1,0,1.79-.5,1.91-1.15h2.44c-.1,1.29-1.38,3.14-4.34,3.14A4.37,4.37,0,0,1,229.12,53.82Zm6.68-1.6v-.11a2.09,2.09,0,1,0-4.16,0v.11Z"/><path d="M240.94,48h2.57v1.62h.12a2.62,2.62,0,0,1,2.62-1.78,4,4,0,0,1,.81.07v2.23a4.33,4.33,0,0,0-1-.09,2.23,2.23,0,0,0-2.48,2.38v5.93h-2.62Z"/><path d="M248.27,48h2.8l2.05,8h.11l2.27-8h2.71l-3.63,10.36h-2.86Z"/><path d="M261.6,43.54A1.44,1.44,0,1,1,260,45,1.45,1.45,0,0,1,261.6,43.54ZM260.32,48h2.57V58.39h-2.57Z"/><path d="M265.67,52.52a4.34,4.34,0,0,1,4.61-4.68c2.71,0,4.24,1.65,4.28,3.62h-2.37a1.7,1.7,0,0,0-1.84-1.55c-1.35,0-2.09,1-2.09,2.65v1.25c0,1.68.78,2.71,2.1,2.71a1.63,1.63,0,0,0,1.87-1.47h2.37c0,2-1.48,3.53-4.32,3.53s-4.61-1.82-4.61-4.76Z"/><path d="M276.58,53.82V52.59a4.59,4.59,0,1,1,9.17,0v1.19H279.1v.49a2.13,2.13,0,0,0,2.2,2.32c1.05,0,1.8-.5,1.91-1.15h2.44c-.1,1.29-1.38,3.14-4.34,3.14A4.37,4.37,0,0,1,276.58,53.82Zm6.68-1.6v-.11a2.09,2.09,0,1,0-4.16,0v.11Z"/></svg>