<svg xmlns="http://www.w3.org/2000/svg" xmlns:xlink="http://www.w3.org/1999/xlink" width="300" height="80" viewBox="0 0 300 80"><defs><style>.a{fill:#fff;}.b{fill:#ff0048;}.c{fill:url(#a);}.d{mask:url(#b);}.e{fill:#1111f8;}</style><linearGradient id="a" x1="1.74" y1="-159.69" x2="48.58" y2="-159.69" gradientTransform="matrix(1, 0, 0, -1, 0, -120)" gradientUnits="userSpaceOnUse"><stop offset="0" stop-color="#fae4ea"/><stop offset="1" stop-color="#f5f5ff"/></linearGradient><mask id="b" x="-6.81" y="8.15" width="63.87" height="62.85" maskUnits="userSpaceOnUse"><ellipse class="a" cx="25.16" cy="39.69" rx="23.42" ry="23.05"/></mask></defs><title>repo-headers</title><ellipse class="b" cx="23.42" cy="42.25" rx="23.42" ry="23.05"/><ellipse class="c" cx="25.16" cy="39.69" rx="23.42" ry="23.05"/><g class="d"><polygon class="e" points="23.86 71 22.63 69.79 55.83 37.12 57.05 38.33 23.86 71"/><polygon class="e" points="18.95 66.17 17.72 64.96 50.92 32.3 52.15 33.5 18.95 66.17"/><polygon class="e" points="14.04 61.34 12.81 60.14 46.01 27.47 47.24 28.67 14.04 61.34"/><polygon class="e" points="9.13 56.51 7.91 55.31 41.11 22.64 42.33 23.84 9.13 56.51"/><polygon class="e" points="4.23 51.69 3 50.48 36.2 17.81 37.43 19.02 4.23 51.69"/><polygon class="e" points="-0.68 46.86 -1.91 45.65 31.29 12.98 32.52 14.19 -0.68 46.86"/><polygon class="e" points="-5.59 42.03 -6.82 40.82 26.39 8.15 27.61 9.36 -5.59 42.03"/></g><path d="M70.19,48.39H61.9V35.06h2.64V46.15h5.65Z"/><path d="M81.19,42.6v1.16c0,3.08-1.89,4.82-4.73,4.82s-4.75-1.72-4.75-4.82V42.62a4.5,4.5,0,0,1,4.75-4.78A4.44,4.44,0,0,1,81.19,42.6Zm-6.88.07v1.07c0,1.56.67,2.84,2.15,2.84s2.13-1.27,2.13-2.84V42.67c0-1.57-.7-2.83-2.13-2.83S74.31,41.11,74.31,42.67Z"/><path d="M83.24,45.38c0-1.85,1.29-3.08,3.69-3.08h2.53v-.93c0-1-.67-1.54-1.73-1.54s-1.55.46-1.68,1.1H83.62c.12-1.7,1.33-3.07,4.17-3.07,2.33,0,4.22.94,4.22,3.57v7H89.58V47.07h-.12a3,3,0,0,1-2.81,1.48A3.1,3.1,0,0,1,83.24,45.38Zm6.22-.46V43.85h-2c-1.14,0-1.68.58-1.68,1.37a1.5,1.5,0,0,0,1.69,1.43A1.83,1.83,0,0,0,89.46,44.92Z"/><path d="M107.82,48.39V42.68h-5.6v5.71H99.58V35.06h2.64v5.42h5.6V35.06h2.64V48.39Z"/><path d="M122.67,42.6v1.16a4.42,4.42,0,0,1-4.73,4.82c-2.87,0-4.76-1.72-4.76-4.82V42.62a4.5,4.5,0,0,1,4.76-4.78A4.45,4.45,0,0,1,122.67,42.6Zm-6.89.07v1.07c0,1.56.67,2.84,2.16,2.84s2.13-1.27,2.13-2.84V42.67c0-1.57-.71-2.83-2.13-2.83S115.78,41.11,115.78,42.67Z"/><path d="M129,37.84c2.33,0,4,1.11,4,3h-2.28c-.06-.61-.61-1.25-1.73-1.25s-1.66.48-1.66,1.25c0,1.08,1.56,1.21,2.68,1.41,1.91.32,3.3,1,3.3,2.92,0,2.11-1.66,3.38-4.43,3.38s-4.2-1.19-4.2-3h2.49c.1.75.67,1.27,1.82,1.27s1.83-.59,1.83-1.3c0-1-1.22-1.13-2.57-1.4-1.86-.37-3.37-1-3.37-3C124.85,38.77,126.82,37.84,129,37.84Z"/><path d="M136.49,35.55H139v2.58h2.3v2H139v5c0,1,.43,1.35,1.51,1.35.32,0,.7,0,.89,0v1.9a11.12,11.12,0,0,1-1.52.11c-2.58,0-3.43-.87-3.43-3V40.1h-1.58v-2h1.63Z"/><path d="M143.33,43.82V42.59a4.59,4.59,0,1,1,9.17,0v1.19h-6.65v.49a2.13,2.13,0,0,0,2.2,2.32c1,0,1.79-.5,1.91-1.15h2.44c-.11,1.29-1.38,3.14-4.34,3.14A4.37,4.37,0,0,1,143.33,43.82Zm6.68-1.6v-.11a2.09,2.09,0,1,0-4.16,0v.11Z"/><path d="M161.46,39.6h.11V34.36h2.58v14h-2.53V46.73h-.13a3,3,0,0,1-3,1.79c-2.35,0-3.87-1.7-3.87-4.54V42.43c0-2.84,1.54-4.54,3.9-4.54A3,3,0,0,1,161.46,39.6Zm-4.23,3.1v1c0,1.78.83,2.78,2.15,2.78s2.19-1,2.19-2.67V42.47a2.27,2.27,0,0,0-2.22-2.53C158.05,39.94,157.23,40.93,157.23,42.7Z"/><path d="M173.56,44.76c.18,1,1.18,1.8,2.75,1.8s2.51-.76,2.51-1.85c0-.93-.67-1.41-2-1.73l-2.06-.48c-2.07-.47-3.38-1.66-3.38-3.68,0-2.44,2-4,5-4s4.8,1.71,4.93,3.76h-2.5a2.23,2.23,0,0,0-2.45-1.69c-1.46,0-2.33.75-2.33,1.79,0,.8.66,1.32,1.83,1.58l2.07.48c2.16.48,3.59,1.52,3.59,3.76,0,2.48-1.91,4.18-5.29,4.18s-5-1.78-5.14-3.89Z"/><path d="M183.52,43.82V42.59a4.59,4.59,0,1,1,9.17,0v1.19H186v.49a2.13,2.13,0,0,0,2.19,2.32c1.06,0,1.8-.5,1.92-1.15h2.44c-.11,1.29-1.39,3.14-4.35,3.14S183.52,46.88,183.52,43.82Zm6.68-1.6v-.11a2.09,2.09,0,1,0-4.16,0v.11Z"/><path d="M195.33,38h2.57v1.62H198a2.6,2.6,0,0,1,2.61-1.78,4.15,4.15,0,0,1,.82.07v2.23a4.44,4.44,0,0,0-1-.09A2.22,2.22,0,0,0,198,42.46v5.93h-2.63Z"/><path d="M202.67,38h2.8l2.05,8h.11l2.26-8h2.72L209,48.39h-2.86Z"/><path d="M216,33.54A1.44,1.44,0,1,1,214.38,35,1.46,1.46,0,0,1,216,33.54ZM214.72,38h2.57V48.39h-2.57Z"/><path d="M220.07,42.52a4.34,4.34,0,0,1,4.61-4.68c2.7,0,4.24,1.65,4.28,3.62h-2.38a1.69,1.69,0,0,0-1.83-1.55c-1.35,0-2.09,1-2.09,2.65v1.25c0,1.68.78,2.71,2.1,2.71a1.62,1.62,0,0,0,1.86-1.47H229c0,2-1.48,3.53-4.31,3.53s-4.61-1.82-4.61-4.76Z"/><path d="M231,43.82V42.59a4.59,4.59,0,1,1,9.17,0v1.19H233.5v.49a2.13,2.13,0,0,0,2.19,2.32c1.06,0,1.8-.5,1.92-1.15h2.44c-.11,1.29-1.39,3.14-4.35,3.14S231,46.88,231,43.82Zm6.68-1.6v-.11a2.09,2.09,0,1,0-4.16,0v.11Z"/><path d="M246.46,37.84c2.32,0,3.95,1.11,3.95,3h-2.28c0-.61-.61-1.25-1.72-1.25s-1.66.48-1.66,1.25c0,1.08,1.55,1.21,2.67,1.41,1.92.32,3.3,1,3.3,2.92,0,2.11-1.66,3.38-4.43,3.38s-4.2-1.19-4.2-3h2.49c.1.75.67,1.27,1.83,1.27s1.82-.59,1.82-1.3c0-1-1.22-1.13-2.57-1.4-1.86-.37-3.37-1-3.37-3C242.29,38.77,244.26,37.84,246.46,37.84Z"/></svg>