<svg xmlns="http://www.w3.org/2000/svg" xmlns:xlink="http://www.w3.org/1999/xlink" width="300" height="80" viewBox="0 0 300 80"><defs><style>.a{fill:#fff;}.b{fill:#ff0048;}.c{fill:url(#a);}.d{mask:url(#b);}.e{fill:#1111f8;}.f{fill:#11f;}</style><linearGradient id="a" x1="1.74" y1="-1869.69" x2="48.58" y2="-1869.69" gradientTransform="matrix(1, 0, 0, -1, 0, -1830)" gradientUnits="userSpaceOnUse"><stop offset="0" stop-color="#fae4ea"/><stop offset="1" stop-color="#f5f5ff"/></linearGradient><mask id="b" x="-6.81" y="8.15" width="63.87" height="62.85" maskUnits="userSpaceOnUse"><ellipse class="a" cx="25.16" cy="39.69" rx="23.42" ry="23.05"/></mask></defs><title>repo-headers</title><ellipse class="b" cx="23.42" cy="42.25" rx="23.42" ry="23.05"/><ellipse class="c" cx="25.16" cy="39.69" rx="23.42" ry="23.05"/><g class="d"><polygon class="e" points="23.86 71 22.63 69.79 55.83 37.12 57.05 38.33 23.86 71"/><polygon class="e" points="18.95 66.17 17.72 64.96 50.92 32.3 52.15 33.5 18.95 66.17"/><polygon class="e" points="14.04 61.34 12.81 60.14 46.01 27.47 47.24 28.67 14.04 61.34"/><polygon class="e" points="9.13 56.51 7.91 55.31 41.11 22.64 42.33 23.84 9.13 56.51"/><polygon class="e" points="4.23 51.69 3 50.48 36.2 17.81 37.43 19.02 4.23 51.69"/><polygon class="e" points="-0.68 46.86 -1.91 45.65 31.29 12.98 32.52 14.19 -0.68 46.86"/><polygon class="e" points="-5.59 42.03 -6.82 40.82 26.39 8.15 27.61 9.36 -5.59 42.03"/></g><rect class="f" x="61" y="18" width="109" height="19" rx="4.27"/><path class="a" d="M68.65,32.77V22.11h2L75,28.44h.1V22.11h2.39V32.77h-2l-4.29-6.4H71v6.4Z"/><path class="a" d="M84.74,33c-3,0-4.75-1.89-4.75-4.89V26.83c0-3,1.74-4.91,4.75-4.91s4.74,1.9,4.74,4.91v1.25C89.48,31.08,87.75,33,84.74,33Zm0-9c-1.28,0-2.14.94-2.14,2.79v1.28c0,1.86.86,2.8,2.14,2.8s2.12-.94,2.12-2.8V26.8C86.86,25,86,24,84.74,24Z"/><path class="a" d="M93.79,32.77V24.21H90.88v-2.1h8.37v2.1h-2.9v8.56Z"/><path class="a" d="M108.43,32.77h-7.16V22.11h7.16v2h-4.62v2.32h4.33v1.87h-4.33v2.39h4.62Z"/><path class="a" d="M111.1,22.11h4.72c2,0,3.27,1,3.27,2.61a2.25,2.25,0,0,1-1.9,2.33v.12a2.49,2.49,0,0,1,2.41,2.58c0,1.94-1.63,3-3.71,3H111.1Zm2.54,4.33h1.25c1.18,0,1.69-.5,1.69-1.27s-.51-1.24-1.41-1.24h-1.53Zm0,4.51H115c1.4,0,2-.54,2-1.41s-.58-1.44-1.72-1.44h-1.64Z"/><path class="a" d="M126.3,33c-3,0-4.75-1.89-4.75-4.89V26.83c0-3,1.75-4.91,4.75-4.91s4.75,1.9,4.75,4.91v1.25C131.05,31.08,129.32,33,126.3,33Zm0-9c-1.27,0-2.13.94-2.13,2.79v1.28c0,1.86.86,2.8,2.13,2.8s2.13-.94,2.13-2.8V26.8C128.43,25,127.57,24,126.3,24Z"/><path class="a" d="M137.93,33c-3,0-4.75-1.89-4.75-4.89V26.83c0-3,1.74-4.91,4.75-4.91s4.74,1.9,4.74,4.91v1.25C142.67,31.08,141,33,137.93,33Zm0-9c-1.27,0-2.13.94-2.13,2.79v1.28c0,1.86.86,2.8,2.13,2.8s2.13-.94,2.13-2.8V26.8C140.06,25,139.2,24,137.93,24Z"/><path class="a" d="M150.61,26.73l3.84,6h-3l-2.69-4.34-.95,1.11v3.23h-2.57V22.11h2.57v4.54h.11l3.68-4.54h2.74Z"/><path class="a" d="M158.13,29.72c.09.71.79,1.29,2,1.29s1.75-.53,1.75-1.23-.53-1-1.58-1.2l-1.51-.32c-1.69-.36-2.83-1.27-2.83-3,0-2,1.69-3.32,4.15-3.32,2.67,0,4.05,1.5,4.11,3.15H161.8a1.57,1.57,0,0,0-1.74-1.21c-1,0-1.6.52-1.6,1.2s.53.92,1.43,1.09l1.55.32c1.62.32,2.92,1.13,2.92,3.07S162.85,33,160,33s-4.23-1.57-4.29-3.25Z"/><path d="M64.05,52.58c0,2.46,1.07,3.84,2.93,3.84a2.48,2.48,0,0,0,2.64-2.34h2.55v.26C72,56.89,69.88,58.65,67,58.65c-3.58,0-5.59-2.29-5.59-6.07V50.92c0-3.78,2-6.11,5.59-6.11,2.93,0,5.09,1.8,5.21,4.44v.25H69.62A2.55,2.55,0,0,0,67,47c-1.84,0-2.93,1.43-2.93,3.9Z"/><path d="M83.78,52.6v1.16a4.42,4.42,0,0,1-4.73,4.82c-2.87,0-4.75-1.72-4.75-4.82V52.62a4.5,4.5,0,0,1,4.75-4.78A4.45,4.45,0,0,1,83.78,52.6Zm-6.89.07v1.07c0,1.56.68,2.84,2.16,2.84s2.13-1.27,2.13-2.84V52.67c0-1.57-.7-2.83-2.13-2.83S76.89,51.11,76.89,52.67Z"/><path d="M92.77,49.6h.12V44.36h2.58v14H92.94V56.73h-.13a3,3,0,0,1-3,1.79c-2.34,0-3.86-1.7-3.86-4.54V52.43c0-2.84,1.54-4.54,3.89-4.54A3,3,0,0,1,92.77,49.6Zm-4.23,3.1v1c0,1.78.83,2.78,2.16,2.78s2.19-1,2.19-2.67V52.47a2.27,2.27,0,0,0-2.23-2.53C89.36,49.94,88.54,50.93,88.54,52.7Z"/><path d="M98.08,53.82V52.59a4.59,4.59,0,1,1,9.17,0v1.19h-6.66v.49a2.13,2.13,0,0,0,2.2,2.32c1.06,0,1.8-.5,1.92-1.15h2.44c-.11,1.29-1.39,3.14-4.35,3.14S98.08,56.88,98.08,53.82Zm6.67-1.6v-.11a2.09,2.09,0,1,0-4.16,0v.11Z"/><path d="M114.37,58.39V45.06h2.21l5.84,8.87h.11V45.06H125V58.39h-2.19L117,49.48h-.11v8.91Z"/><path d="M137.24,52.6v1.16a4.42,4.42,0,0,1-4.73,4.82c-2.87,0-4.76-1.72-4.76-4.82V52.62a4.5,4.5,0,0,1,4.76-4.78A4.45,4.45,0,0,1,137.24,52.6Zm-6.89.07v1.07c0,1.56.67,2.84,2.16,2.84s2.13-1.27,2.13-2.84V52.67c0-1.57-.7-2.83-2.13-2.83S130.35,51.11,130.35,52.67Z"/><path d="M140.52,45.55H143v2.58h2.29v2H143v5c0,1,.43,1.35,1.5,1.35.32,0,.7,0,.89,0v1.9a11.08,11.08,0,0,1-1.51.11c-2.58,0-3.44-.87-3.44-3V50.1h-1.57v-2h1.63Z"/><path d="M147.35,53.82V52.59a4.59,4.59,0,1,1,9.17,0v1.19h-6.65v.49a2.13,2.13,0,0,0,2.2,2.32c1.05,0,1.8-.5,1.91-1.15h2.45c-.11,1.29-1.39,3.14-4.35,3.14A4.37,4.37,0,0,1,147.35,53.82Zm6.68-1.6v-.11a2.09,2.09,0,1,0-4.16,0v.11Z"/><path d="M161.76,56.81h-.13v1.58h-2.54v-14h2.58v5.31h.13a2.94,2.94,0,0,1,3-1.78c2.41,0,3.86,1.73,3.86,4.61v1.41c0,2.88-1.46,4.62-3.89,4.62A3,3,0,0,1,161.76,56.81ZM166,53.67v-.89c0-1.8-.79-2.84-2.15-2.84s-2.2,1-2.2,2.69v1.29a2.3,2.3,0,0,0,2.23,2.56C165.24,56.48,166,55.45,166,53.67Z"/><path d="M180.26,52.6v1.16c0,3.08-1.89,4.82-4.72,4.82s-4.76-1.72-4.76-4.82V52.62a4.5,4.5,0,0,1,4.76-4.78A4.44,4.44,0,0,1,180.26,52.6Zm-6.88.07v1.07c0,1.56.67,2.84,2.16,2.84s2.13-1.27,2.13-2.84V52.67c0-1.57-.71-2.83-2.13-2.83S173.38,51.11,173.38,52.67Z"/><path d="M191.86,52.6v1.16a4.42,4.42,0,0,1-4.73,4.82c-2.87,0-4.76-1.72-4.76-4.82V52.62a4.5,4.5,0,0,1,4.76-4.78A4.45,4.45,0,0,1,191.86,52.6Zm-6.89.07v1.07c0,1.56.67,2.84,2.16,2.84s2.13-1.27,2.13-2.84V52.67c0-1.57-.71-2.83-2.13-2.83S185,51.11,185,52.67Z"/><path d="M197,58.39h-2.58v-14H197v8h.12L200.61,48h2.9l-3.78,4.47,4,5.89h-3l-3-4.42-.74.82Z"/><path d="M209.14,47.84c2.32,0,4,1.11,4,3h-2.28c-.06-.61-.61-1.25-1.73-1.25s-1.66.48-1.66,1.25c0,1.08,1.55,1.21,2.68,1.41,1.91.32,3.3,1,3.3,2.92,0,2.11-1.66,3.38-4.44,3.38-2.62,0-4.19-1.19-4.19-3h2.49c.09.75.67,1.27,1.82,1.27s1.83-.59,1.83-1.3c0-1-1.22-1.13-2.57-1.4-1.87-.37-3.37-1-3.37-3C205,48.77,206.94,47.84,209.14,47.84Z"/><path d="M222.24,54.76c.17,1,1.17,1.8,2.74,1.8s2.51-.76,2.51-1.85c0-.93-.66-1.41-2.05-1.73l-2.06-.48C221.31,52,220,50.84,220,48.82c0-2.44,2-4,5-4s4.81,1.71,4.93,3.76h-2.5A2.22,2.22,0,0,0,225,46.86c-1.45,0-2.32.75-2.32,1.79,0,.8.65,1.32,1.82,1.58l2.07.48c2.16.48,3.59,1.52,3.59,3.76,0,2.48-1.91,4.18-5.29,4.18s-5-1.78-5.14-3.89Z"/><path d="M232.19,53.82V52.59a4.59,4.59,0,1,1,9.17,0v1.19h-6.65v.49a2.13,2.13,0,0,0,2.19,2.32c1.06,0,1.8-.5,1.92-1.15h2.44c-.11,1.29-1.39,3.14-4.35,3.14S232.19,56.88,232.19,53.82Zm6.68-1.6v-.11a2.09,2.09,0,1,0-4.16,0v.11Z"/><path d="M244,48h2.57v1.62h.13a2.61,2.61,0,0,1,2.62-1.78,4.11,4.11,0,0,1,.81.07v2.23a4.44,4.44,0,0,0-1-.09,2.22,2.22,0,0,0-2.48,2.38v5.93H244Z"/><path d="M251.34,48h2.8l2.05,8h.11l2.26-8h2.72l-3.63,10.36h-2.86Z"/><path d="M264.67,43.54A1.44,1.44,0,1,1,263.06,45,1.46,1.46,0,0,1,264.67,43.54ZM263.39,48H266V58.39h-2.57Z"/><path d="M268.74,52.52a4.34,4.34,0,0,1,4.61-4.68c2.7,0,4.24,1.65,4.28,3.62h-2.38a1.68,1.68,0,0,0-1.83-1.55c-1.35,0-2.09,1-2.09,2.65v1.25c0,1.68.78,2.71,2.1,2.71a1.61,1.61,0,0,0,1.86-1.47h2.38c0,2-1.49,3.53-4.32,3.53s-4.61-1.82-4.61-4.76Z"/><path d="M279.65,53.82V52.59a4.59,4.59,0,1,1,9.17,0v1.19h-6.65v.49a2.13,2.13,0,0,0,2.2,2.32c1.05,0,1.79-.5,1.91-1.15h2.44c-.11,1.29-1.39,3.14-4.34,3.14A4.36,4.36,0,0,1,279.65,53.82Zm6.68-1.6v-.11a2.09,2.09,0,1,0-4.16,0v.11Z"/></svg>