<svg xmlns="http://www.w3.org/2000/svg" xmlns:xlink="http://www.w3.org/1999/xlink" width="300" height="80" viewBox="0 0 300 80"><defs><style>.a{fill:#fff;}.b{fill:#ff0048;}.c{fill:url(#a);}.d{mask:url(#b);}.e{fill:#1111f8;}.f{fill:#11f;}</style><linearGradient id="a" x1="1.74" y1="-1633.69" x2="48.58" y2="-1633.69" gradientTransform="matrix(1, 0, 0, -1, 0, -1594)" gradientUnits="userSpaceOnUse"><stop offset="0" stop-color="#fae4ea"/><stop offset="1" stop-color="#f5f5ff"/></linearGradient><mask id="b" x="-6.81" y="8.15" width="63.87" height="62.85" maskUnits="userSpaceOnUse"><ellipse class="a" cx="25.16" cy="39.69" rx="23.42" ry="23.05"/></mask></defs><title>repo-headers</title><ellipse class="b" cx="23.42" cy="42.25" rx="23.42" ry="23.05"/><ellipse class="c" cx="25.16" cy="39.69" rx="23.42" ry="23.05"/><g class="d"><polygon class="e" points="23.86 71 22.63 69.79 55.83 37.12 57.05 38.33 23.86 71"/><polygon class="e" points="18.95 66.17 17.72 64.96 50.92 32.3 52.15 33.5 18.95 66.17"/><polygon class="e" points="14.04 61.34 12.81 60.14 46.01 27.47 47.24 28.67 14.04 61.34"/><polygon class="e" points="9.13 56.51 7.91 55.31 41.11 22.64 42.33 23.84 9.13 56.51"/><polygon class="e" points="4.23 51.69 3 50.48 36.2 17.81 37.43 19.02 4.23 51.69"/><polygon class="e" points="-0.68 46.86 -1.91 45.65 31.29 12.98 32.52 14.19 -0.68 46.86"/><polygon class="e" points="-5.59 42.03 -6.82 40.82 26.39 8.15 27.61 9.36 -5.59 42.03"/></g><rect class="f" x="61" y="18" width="57" height="19" rx="4.27"/><path class="a" d="M72.83,22.11c3.33,0,4.82,2,4.82,5.29s-1.53,5.37-4.82,5.37H68.65V22.11Zm-1.61,8.62h1.21c1.82,0,2.59-1.08,2.59-3.27s-.78-3.32-2.59-3.32H71.22Z"/><path class="a" d="M84.44,33c-3,0-4.75-1.89-4.75-4.89V26.83c0-3,1.74-4.91,4.75-4.91s4.74,1.9,4.74,4.91v1.25C89.18,31.08,87.45,33,84.44,33Zm0-9c-1.27,0-2.13.94-2.13,2.79v1.28c0,1.86.86,2.8,2.13,2.8s2.12-.94,2.12-2.8V26.8C86.56,25,85.7,24,84.44,24Z"/><path class="a" d="M93.93,28.05c0,1.8.75,2.79,2,2.79A1.78,1.78,0,0,0,97.83,29h2.45v.3C100.22,31.5,98.42,33,96,33c-3,0-4.63-1.89-4.63-4.93V26.86c0-3,1.66-4.94,4.63-4.94,2.48,0,4.27,1.48,4.33,3.72v.3H97.83A1.84,1.84,0,0,0,96,24c-1.29,0-2,1-2,2.82Z"/><path class="a" d="M104.64,29.72c.09.71.78,1.29,2,1.29s1.75-.53,1.75-1.23-.54-1-1.58-1.2l-1.51-.32c-1.7-.36-2.84-1.27-2.84-3,0-2,1.69-3.32,4.16-3.32,2.66,0,4.05,1.5,4.11,3.15H108.3a1.57,1.57,0,0,0-1.74-1.21c-1,0-1.59.52-1.59,1.2s.52.92,1.43,1.09l1.55.32c1.62.32,2.92,1.13,2.92,3.07S109.36,33,106.48,33s-4.22-1.57-4.28-3.25Z"/><path d="M66.77,45.06c4,0,6,2.42,6,6.63s-1.94,6.7-6,6.7H61.9V45.06ZM64.54,56.23h1.88c2.48,0,3.6-1.48,3.6-4.49s-1.13-4.53-3.6-4.53H64.54Z"/><path d="M84.41,52.6v1.16c0,3.08-1.89,4.82-4.72,4.82s-4.76-1.72-4.76-4.82V52.62a4.5,4.5,0,0,1,4.76-4.78A4.44,4.44,0,0,1,84.41,52.6Zm-6.88.07v1.07c0,1.56.67,2.84,2.16,2.84s2.13-1.27,2.13-2.84V52.67c0-1.57-.71-2.83-2.13-2.83S77.53,51.11,77.53,52.67Z"/><path d="M86.52,52.52a4.34,4.34,0,0,1,4.61-4.68c2.71,0,4.24,1.65,4.28,3.62H93a1.7,1.7,0,0,0-1.84-1.55c-1.35,0-2.09,1-2.09,2.65v1.25c0,1.68.78,2.71,2.1,2.71a1.63,1.63,0,0,0,1.87-1.47h2.37c0,2-1.49,3.53-4.32,3.53s-4.61-1.82-4.61-4.76Z"/><path d="M107,58.39h-2.51V56.66h-.13a3.05,3.05,0,0,1-3,1.89c-2.06,0-3.47-1-3.47-3.5V48h2.57v6.35c0,1.59.92,2,1.87,2a2.1,2.1,0,0,0,2.15-2.14V48H107Z"/><path d="M110.07,48h2.51v1.71h.12a2.69,2.69,0,0,1,2.84-1.88,2.71,2.71,0,0,1,2.84,2h.1a3.16,3.16,0,0,1,3.14-2,3.06,3.06,0,0,1,3.34,3.3v7.23h-2.57V52c0-1.32-.7-2-1.78-2a1.89,1.89,0,0,0-1.86,2.11v6.3h-2.48V52a1.77,1.77,0,0,0-1.81-2,1.85,1.85,0,0,0-1.82,2.09v6.32h-2.57Z"/><path d="M127.49,53.82V52.59a4.59,4.59,0,1,1,9.17,0v1.19H130v.49a2.13,2.13,0,0,0,2.2,2.32c1,0,1.79-.5,1.91-1.15h2.44c-.1,1.29-1.38,3.14-4.34,3.14A4.36,4.36,0,0,1,127.49,53.82Zm6.68-1.6v-.11a2.09,2.09,0,1,0-4.16,0v.11Z"/><path d="M139.21,48h2.51v1.83h.13a2.93,2.93,0,0,1,3.08-2c2.08,0,3.46,1.19,3.46,3.59v6.94h-2.57V52.17c0-1.53-.81-2.15-1.86-2.15-1.39,0-2.18,1.07-2.18,2.63v5.74h-2.57Z"/><path d="M152.1,45.55h2.5v2.58h2.29v2H154.6v5c0,1,.43,1.35,1.5,1.35.33,0,.71,0,.89,0v1.9a10.94,10.94,0,0,1-1.51.11c-2.58,0-3.44-.87-3.44-3V50.1h-1.57v-2h1.63Z"/><path d="M158.88,55.38c0-1.85,1.29-3.08,3.69-3.08h2.53v-.93c0-1-.68-1.54-1.73-1.54s-1.55.46-1.68,1.1h-2.43c.12-1.7,1.33-3.07,4.17-3.07,2.32,0,4.22.94,4.22,3.57v7h-2.44V57.07h-.11a3,3,0,0,1-2.81,1.48A3.09,3.09,0,0,1,158.88,55.38Zm6.22-.46V53.85h-2c-1.15,0-1.68.58-1.68,1.37a1.5,1.5,0,0,0,1.68,1.43A1.83,1.83,0,0,0,165.1,54.92Z"/><path d="M171.33,45.55h2.5v2.58h2.29v2h-2.29v5c0,1,.43,1.35,1.5,1.35.32,0,.71,0,.89,0v1.9a10.94,10.94,0,0,1-1.51.11c-2.58,0-3.44-.87-3.44-3V50.1H169.7v-2h1.63Z"/><path d="M180.11,43.54A1.44,1.44,0,1,1,178.5,45,1.46,1.46,0,0,1,180.11,43.54ZM178.83,48h2.57V58.39h-2.57Z"/><path d="M193.66,52.6v1.16c0,3.08-1.89,4.82-4.72,4.82s-4.76-1.72-4.76-4.82V52.62a4.5,4.5,0,0,1,4.76-4.78A4.44,4.44,0,0,1,193.66,52.6Zm-6.88.07v1.07c0,1.56.67,2.84,2.16,2.84s2.12-1.27,2.12-2.84V52.67c0-1.57-.7-2.83-2.12-2.83S186.78,51.11,186.78,52.67Z"/><path d="M196.25,48h2.51v1.83h.13a2.93,2.93,0,0,1,3.08-2c2.08,0,3.46,1.19,3.46,3.59v6.94h-2.57V52.17c0-1.53-.81-2.15-1.86-2.15-1.39,0-2.18,1.07-2.18,2.63v5.74h-2.57Z"/><path d="M214.76,54.76c.17,1,1.17,1.8,2.74,1.8S220,55.8,220,54.71c0-.93-.66-1.41-2-1.73l-2.06-.48c-2.07-.47-3.38-1.66-3.38-3.68,0-2.44,2-4,5-4s4.8,1.71,4.93,3.76h-2.5a2.22,2.22,0,0,0-2.45-1.69c-1.45,0-2.32.75-2.32,1.79,0,.8.65,1.32,1.82,1.58l2.07.48c2.16.48,3.59,1.52,3.59,3.76,0,2.48-1.91,4.18-5.29,4.18s-5-1.78-5.14-3.89Z"/><path d="M224.71,53.82V52.59a4.59,4.59,0,1,1,9.17,0v1.19h-6.65v.49a2.13,2.13,0,0,0,2.19,2.32c1.06,0,1.8-.5,1.92-1.15h2.44c-.11,1.29-1.39,3.14-4.35,3.14S224.71,56.88,224.71,53.82Zm6.68-1.6v-.11a2.09,2.09,0,1,0-4.16,0v.11Z"/><path d="M236.52,48h2.57v1.62h.13a2.61,2.61,0,0,1,2.62-1.78,4.11,4.11,0,0,1,.81.07v2.23a4.44,4.44,0,0,0-1-.09,2.22,2.22,0,0,0-2.48,2.38v5.93h-2.63Z"/><path d="M243.86,48h2.8l2.05,8h.11l2.26-8h2.72l-3.63,10.36H247.3Z"/><path d="M257.19,43.54A1.44,1.44,0,1,1,255.58,45,1.46,1.46,0,0,1,257.19,43.54ZM255.91,48h2.57V58.39h-2.57Z"/><path d="M261.26,52.52a4.34,4.34,0,0,1,4.61-4.68c2.7,0,4.24,1.65,4.28,3.62h-2.38a1.68,1.68,0,0,0-1.83-1.55c-1.35,0-2.09,1-2.09,2.65v1.25c0,1.68.78,2.71,2.1,2.71a1.61,1.61,0,0,0,1.86-1.47h2.38c0,2-1.49,3.53-4.32,3.53s-4.61-1.82-4.61-4.76Z"/><path d="M272.17,53.82V52.59a4.59,4.59,0,1,1,9.17,0v1.19h-6.65v.49a2.13,2.13,0,0,0,2.19,2.32c1.06,0,1.8-.5,1.92-1.15h2.44c-.11,1.29-1.39,3.14-4.35,3.14S272.17,56.88,272.17,53.82Zm6.68-1.6v-.11a2.09,2.09,0,1,0-4.16,0v.11Z"/></svg>