<svg xmlns="http://www.w3.org/2000/svg" xmlns:xlink="http://www.w3.org/1999/xlink" width="300" height="80" viewBox="0 0 300 80"><defs><style>.a{fill:#fff;}.b{fill:#ff0048;}.c{fill:url(#a);}.d{mask:url(#b);}.e{fill:#1111f8;}.f{fill:#11f;}</style><linearGradient id="a" x1="1.74" y1="-789.69" x2="48.58" y2="-789.69" gradientTransform="matrix(1, 0, 0, -1, 0, -750)" gradientUnits="userSpaceOnUse"><stop offset="0" stop-color="#fae4ea"/><stop offset="1" stop-color="#f5f5ff"/></linearGradient><mask id="b" x="-6.81" y="8.15" width="63.87" height="62.85" maskUnits="userSpaceOnUse"><ellipse class="a" cx="25.16" cy="39.69" rx="23.42" ry="23.05"/></mask></defs><title>repo-headers</title><ellipse class="b" cx="23.42" cy="42.25" rx="23.42" ry="23.05"/><ellipse class="c" cx="25.16" cy="39.69" rx="23.42" ry="23.05"/><g class="d"><polygon class="e" points="23.86 71 22.63 69.79 55.83 37.12 57.05 38.33 23.86 71"/><polygon class="e" points="18.95 66.17 17.72 64.96 50.92 32.3 52.15 33.5 18.95 66.17"/><polygon class="e" points="14.04 61.34 12.81 60.14 46.01 27.47 47.24 28.67 14.04 61.34"/><polygon class="e" points="9.13 56.51 7.91 55.31 41.11 22.64 42.33 23.84 9.13 56.51"/><polygon class="e" points="4.23 51.69 3 50.48 36.2 17.81 37.43 19.02 4.23 51.69"/><polygon class="e" points="-0.68 46.86 -1.91 45.65 31.29 12.98 32.52 14.19 -0.68 46.86"/><polygon class="e" points="-5.59 42.03 -6.82 40.82 26.39 8.15 27.61 9.36 -5.59 42.03"/></g><rect class="f" x="61" y="18" width="45" height="19" rx="4.27"/><path class="a" d="M76.88,25.8a3.48,3.48,0,0,1-3.76,3.66h-1.9v3.31H68.65V22.11h4.5A3.49,3.49,0,0,1,76.88,25.8Zm-4.32-1.72H71.21v3.45h1.35a1.59,1.59,0,0,0,1.72-1.73A1.57,1.57,0,0,0,72.56,24.08Z"/><path class="a" d="M84.52,26.73l3.84,6h-3l-2.69-4.34-1,1.11v3.23H79.12V22.11h2.57v4.54h.11l3.68-4.54h2.74Z"/><path class="a" d="M96.14,25.49A1.79,1.79,0,0,0,94.25,24c-1.36,0-2.11,1-2.11,2.77V28c0,1.61.58,2.83,2.18,2.83a1.7,1.7,0,0,0,1.92-1.68v-.47H94.38V26.91h4.28V29c0,2.08-1.34,4-4.4,4C91,33,89.54,30.83,89.54,28V26.76c0-2.85,1.68-4.84,4.73-4.84,2.79,0,4.26,1.71,4.37,3.57Z"/><path d="M71.74,49.5a4.21,4.21,0,0,1-4.52,4.42H64.54v4.47H61.9V45.06h5.34A4.22,4.22,0,0,1,71.74,49.5Zm-5-2.34h-2.2v4.69h2.2a2.35,2.35,0,0,0,0-4.69Z"/><path d="M73.3,55.38c0-1.85,1.29-3.08,3.69-3.08h2.53v-.93c0-1-.67-1.54-1.73-1.54s-1.55.46-1.68,1.1H73.68c.12-1.7,1.33-3.07,4.17-3.07,2.32,0,4.22.94,4.22,3.57v7H79.64V57.07h-.12a3,3,0,0,1-2.81,1.48A3.1,3.1,0,0,1,73.3,55.38Zm6.22-.46V53.85h-2c-1.14,0-1.68.58-1.68,1.37a1.5,1.5,0,0,0,1.69,1.43A1.83,1.83,0,0,0,79.52,54.92Z"/><path d="M84.58,52.52a4.34,4.34,0,0,1,4.61-4.68c2.7,0,4.24,1.65,4.28,3.62H91.09a1.69,1.69,0,0,0-1.83-1.55c-1.35,0-2.09,1-2.09,2.65v1.25c0,1.68.78,2.71,2.1,2.71a1.62,1.62,0,0,0,1.86-1.47H93.5c0,2-1.48,3.53-4.31,3.53s-4.61-1.82-4.61-4.76Z"/><path d="M98.55,58.39H96v-14h2.57v8h.12L102.13,48H105l-3.78,4.47,4,5.89h-3L99.3,54l-.75.82Z"/><path d="M106.38,55.38c0-1.85,1.29-3.08,3.69-3.08h2.53v-.93c0-1-.68-1.54-1.73-1.54s-1.55.46-1.68,1.1h-2.43c.11-1.7,1.32-3.07,4.17-3.07,2.32,0,4.22.94,4.22,3.57v7h-2.44V57.07h-.11a3,3,0,0,1-2.82,1.48A3.09,3.09,0,0,1,106.38,55.38Zm6.22-.46V53.85h-2c-1.14,0-1.68.58-1.68,1.37a1.5,1.5,0,0,0,1.69,1.43A1.83,1.83,0,0,0,112.6,54.92Z"/><path d="M124.56,58V56.58h-.13a3,3,0,0,1-2.9,1.62c-2.27,0-3.92-1.64-3.92-4.58V52.49c0-3,1.64-4.6,3.92-4.6a3,3,0,0,1,3,1.73h.13V48h2.52V58.19c0,3-2.35,4-4.89,4-3,0-4.32-1.43-4.42-3h2.5c.14.67.89,1.12,2,1.12A2,2,0,0,0,124.56,58Zm-4.32-5.33v.81c0,1.71.92,2.75,2.22,2.75s2.1-1.1,2.1-2.56V52.53c0-1.47-.8-2.59-2.11-2.59S120.24,51,120.24,52.71Z"/><path d="M129.69,53.82V52.59a4.59,4.59,0,1,1,9.17,0v1.19h-6.65v.49a2.13,2.13,0,0,0,2.19,2.32c1.06,0,1.8-.5,1.92-1.15h2.44c-.11,1.29-1.39,3.14-4.35,3.14S129.69,56.88,129.69,53.82Zm6.68-1.6v-.11a2.09,2.09,0,1,0-4.16,0v.11Z"/><path d="M146,58.39V45.06h2.68l3.8,8.65h.09l3.8-8.65h2.66V58.39h-2.38V49.52h-.13l-3.15,7.2h-1.72l-3.17-7.2h-.13v8.87Z"/><path d="M161.75,55.38c0-1.85,1.29-3.08,3.69-3.08H168v-.93c0-1-.68-1.54-1.73-1.54s-1.55.46-1.68,1.1h-2.43c.12-1.7,1.33-3.07,4.17-3.07,2.32,0,4.22.94,4.22,3.57v7h-2.43V57.07H168a3,3,0,0,1-2.81,1.48A3.09,3.09,0,0,1,161.75,55.38Zm6.22-.46V53.85h-2c-1.15,0-1.68.58-1.68,1.37A1.5,1.5,0,0,0,166,56.65,1.83,1.83,0,0,0,168,54.92Z"/><path d="M173.51,48H176v1.83h.12a3,3,0,0,1,3.09-2c2.08,0,3.46,1.19,3.46,3.59v6.94h-2.57V52.17c0-1.53-.81-2.15-1.87-2.15-1.38,0-2.18,1.07-2.18,2.63v5.74h-2.56Z"/><path d="M185.17,55.38c0-1.85,1.29-3.08,3.69-3.08h2.53v-.93c0-1-.68-1.54-1.73-1.54s-1.55.46-1.68,1.1h-2.43c.11-1.7,1.33-3.07,4.17-3.07,2.32,0,4.22.94,4.22,3.57v7H191.5V57.07h-.11a3,3,0,0,1-2.82,1.48A3.09,3.09,0,0,1,185.17,55.38Zm6.22-.46V53.85h-2c-1.14,0-1.68.58-1.68,1.37a1.5,1.5,0,0,0,1.69,1.43A1.83,1.83,0,0,0,191.39,54.92Z"/><path d="M203.35,58V56.58h-.13a3,3,0,0,1-2.9,1.62c-2.27,0-3.92-1.64-3.92-4.58V52.49c0-3,1.64-4.6,3.92-4.6a3,3,0,0,1,3,1.73h.13V48h2.52V58.19c0,3-2.35,4-4.89,4-3,0-4.32-1.43-4.42-3h2.5c.14.67.89,1.12,2,1.12A2,2,0,0,0,203.35,58ZM199,52.71v.81c0,1.71.92,2.75,2.22,2.75s2.1-1.1,2.1-2.56V52.53c0-1.47-.8-2.59-2.11-2.59S199,51,199,52.71Z"/><path d="M208.48,53.82V52.59a4.59,4.59,0,1,1,9.17,0v1.19H211v.49a2.13,2.13,0,0,0,2.19,2.32c1.06,0,1.8-.5,1.92-1.15h2.44c-.11,1.29-1.39,3.14-4.35,3.14S208.48,56.88,208.48,53.82Zm6.68-1.6v-.11a2.09,2.09,0,1,0-4.16,0v.11Z"/><path d="M220.29,48h2.57v1.62H223a2.6,2.6,0,0,1,2.62-1.78,4.11,4.11,0,0,1,.81.07v2.23a4.44,4.44,0,0,0-1-.09,2.22,2.22,0,0,0-2.48,2.38v5.93h-2.63Z"/></svg>