<svg xmlns="http://www.w3.org/2000/svg" xmlns:xlink="http://www.w3.org/1999/xlink" width="300" height="80" viewBox="0 0 300 80"><defs><style>.a{fill:#fff;}.b{fill:#ff0048;}.c{fill:url(#a);}.d{mask:url(#b);}.e{fill:#1111f8;}.f{fill:#11f;}</style><linearGradient id="a" x1="1.74" y1="-1205.69" x2="48.58" y2="-1205.69" gradientTransform="matrix(1, 0, 0, -1, 0, -1166)" gradientUnits="userSpaceOnUse"><stop offset="0" stop-color="#fae4ea"/><stop offset="1" stop-color="#f5f5ff"/></linearGradient><mask id="b" x="-6.81" y="8.15" width="63.87" height="62.85" maskUnits="userSpaceOnUse"><ellipse class="a" cx="25.16" cy="39.69" rx="23.42" ry="23.05"/></mask></defs><title>repo-headers</title><ellipse class="b" cx="23.42" cy="42.25" rx="23.42" ry="23.05"/><ellipse class="c" cx="25.16" cy="39.69" rx="23.42" ry="23.05"/><g class="d"><polygon class="e" points="23.86 71 22.63 69.79 55.83 37.12 57.05 38.33 23.86 71"/><polygon class="e" points="18.95 66.17 17.72 64.96 50.92 32.3 52.15 33.5 18.95 66.17"/><polygon class="e" points="14.04 61.34 12.81 60.14 46.01 27.47 47.24 28.67 14.04 61.34"/><polygon class="e" points="9.13 56.51 7.91 55.31 41.11 22.64 42.33 23.84 9.13 56.51"/><polygon class="e" points="4.23 51.69 3 50.48 36.2 17.81 37.43 19.02 4.23 51.69"/><polygon class="e" points="-0.68 46.86 -1.91 45.65 31.29 12.98 32.52 14.19 -0.68 46.86"/><polygon class="e" points="-5.59 42.03 -6.82 40.82 26.39 8.15 27.61 9.36 -5.59 42.03"/></g><rect class="f" x="61" y="18" width="78" height="19" rx="4.27"/><path class="a" d="M70.52,29.72c.09.71.78,1.29,2,1.29s1.75-.53,1.75-1.23-.53-1-1.58-1.2l-1.51-.32c-1.69-.36-2.84-1.27-2.84-3,0-2,1.69-3.32,4.16-3.32,2.66,0,4,1.5,4.11,3.15H74.19a1.58,1.58,0,0,0-1.75-1.21c-1,0-1.59.52-1.59,1.2s.52.92,1.43,1.09l1.55.32c1.62.32,2.92,1.13,2.92,3.07S75.24,33,72.36,33s-4.22-1.57-4.28-3.25Z"/><path class="a" d="M86.37,32.77H79.21V22.11h7.16v2H81.75v2.32h4.33v1.87H81.75v2.39h4.62Z"/><path class="a" d="M88.07,32.77,91.5,22.11h3.13l3.42,10.66H95.32l-.69-2.46H91.32l-.69,2.46Zm4.86-8.37L91.8,28.46h2.37L93.05,24.4Z"/><path class="a" d="M108.48,25.6a3.23,3.23,0,0,1-1.91,3l2.13,4.17h-2.85L104.05,29h-1.48v3.81h-2.52V22.11h4.5C107.09,22.11,108.48,23.49,108.48,25.6Zm-4.33,1.54c1,0,1.69-.5,1.69-1.52A1.52,1.52,0,0,0,104.17,24h-1.6v3.11Z"/><path class="a" d="M113.18,28.05c0,1.8.75,2.79,2,2.79A1.79,1.79,0,0,0,117.08,29h2.45v.3c-.06,2.19-1.86,3.66-4.33,3.66-3,0-4.63-1.89-4.63-4.93V26.86c0-3,1.66-4.94,4.63-4.94,2.48,0,4.27,1.48,4.33,3.72v.3h-2.45a1.84,1.84,0,0,0-1.87-1.9c-1.28,0-2,1-2,2.82Z"/><path class="a" d="M128.52,32.77V28.4h-3.93v4.37H122V22.11h2.57v4.21h3.93V22.11h2.57V32.77Z"/><path d="M63.63,54.76c.18,1,1.17,1.8,2.75,1.8s2.51-.76,2.51-1.85c0-.93-.67-1.41-2.06-1.73l-2.06-.48C62.7,52,61.4,50.84,61.4,48.82c0-2.44,2-4,5-4s4.8,1.71,4.93,3.76h-2.5a2.23,2.23,0,0,0-2.45-1.69c-1.46,0-2.33.75-2.33,1.79,0,.8.66,1.32,1.83,1.58l2.07.48c2.16.48,3.58,1.52,3.58,3.76,0,2.48-1.9,4.18-5.28,4.18s-5-1.78-5.15-3.89Z"/><path d="M73.58,53.82V52.59a4.59,4.59,0,1,1,9.17,0v1.19H76.1v.49a2.13,2.13,0,0,0,2.2,2.32c1,0,1.8-.5,1.91-1.15h2.45c-.11,1.29-1.39,3.14-4.35,3.14A4.37,4.37,0,0,1,73.58,53.82Zm6.68-1.6v-.11a2.09,2.09,0,1,0-4.16,0v.11Z"/><path d="M84.76,55.38c0-1.85,1.29-3.08,3.7-3.08H91v-.93c0-1-.68-1.54-1.73-1.54s-1.56.46-1.68,1.1H85.15c.11-1.7,1.32-3.07,4.17-3.07,2.32,0,4.21.94,4.21,3.57v7H91.1V57.07H91a3,3,0,0,1-2.82,1.48A3.1,3.1,0,0,1,84.76,55.38ZM91,54.92V53.85H89c-1.14,0-1.68.58-1.68,1.37A1.5,1.5,0,0,0,89,56.65,1.83,1.83,0,0,0,91,54.92Z"/><path d="M96.62,48h2.57v1.62h.13a2.6,2.6,0,0,1,2.61-1.78,4,4,0,0,1,.81.07v2.23a4.29,4.29,0,0,0-1-.09,2.22,2.22,0,0,0-2.48,2.38v5.93H96.62Z"/><path d="M104.24,52.52a4.34,4.34,0,0,1,4.61-4.68c2.7,0,4.23,1.65,4.27,3.62h-2.37a1.69,1.69,0,0,0-1.83-1.55c-1.35,0-2.09,1-2.09,2.65v1.25c0,1.68.78,2.71,2.09,2.71a1.62,1.62,0,0,0,1.87-1.47h2.37c0,2-1.48,3.53-4.31,3.53s-4.61-1.82-4.61-4.76Z"/><path d="M115.66,44.36h2.56v5.5h.14a3,3,0,0,1,3.08-2c2,0,3.44,1.2,3.44,3.61v6.92h-2.57V52.18c0-1.53-.84-2.16-1.9-2.16-1.35,0-2.19,1.06-2.19,2.63v5.74h-2.56Z"/><path d="M134.19,54.76c.17,1,1.17,1.8,2.74,1.8s2.51-.76,2.51-1.85c0-.93-.66-1.41-2.05-1.73l-2.06-.48C133.26,52,132,50.84,132,48.82c0-2.44,2-4,5-4s4.81,1.71,4.93,3.76h-2.5a2.22,2.22,0,0,0-2.45-1.69c-1.45,0-2.32.75-2.32,1.79,0,.8.65,1.32,1.83,1.58l2.07.48c2.15.48,3.58,1.52,3.58,3.76,0,2.48-1.9,4.18-5.28,4.18s-5-1.78-5.15-3.89Z"/><path d="M144.14,53.82V52.59a4.59,4.59,0,1,1,9.17,0v1.19h-6.65v.49a2.13,2.13,0,0,0,2.2,2.32c1,0,1.79-.5,1.91-1.15h2.44c-.1,1.29-1.38,3.14-4.34,3.14A4.37,4.37,0,0,1,144.14,53.82Zm6.68-1.6v-.11a2.09,2.09,0,1,0-4.16,0v.11Z"/><path d="M156,48h2.57v1.62h.12a2.62,2.62,0,0,1,2.62-1.78,4.11,4.11,0,0,1,.81.07v2.23a4.44,4.44,0,0,0-1-.09,2.22,2.22,0,0,0-2.48,2.38v5.93H156Z"/><path d="M163.29,48h2.8l2,8h.11l2.27-8h2.71L169.6,58.39h-2.86Z"/><path d="M176.62,43.54A1.44,1.44,0,1,1,175,45,1.45,1.45,0,0,1,176.62,43.54ZM175.34,48h2.57V58.39h-2.57Z"/><path d="M180.69,52.52a4.34,4.34,0,0,1,4.61-4.68c2.71,0,4.24,1.65,4.28,3.62h-2.37a1.7,1.7,0,0,0-1.84-1.55c-1.35,0-2.09,1-2.09,2.65v1.25c0,1.68.78,2.71,2.1,2.71a1.63,1.63,0,0,0,1.87-1.47h2.37c0,2-1.49,3.53-4.32,3.53s-4.61-1.82-4.61-4.76Z"/><path d="M191.6,53.82V52.59a4.59,4.59,0,1,1,9.17,0v1.19h-6.65v.49a2.13,2.13,0,0,0,2.2,2.32c1.05,0,1.8-.5,1.91-1.15h2.44c-.1,1.29-1.38,3.14-4.34,3.14A4.37,4.37,0,0,1,191.6,53.82Zm6.68-1.6v-.11a2.09,2.09,0,1,0-4.16,0v.11Z"/></svg>