<svg xmlns="http://www.w3.org/2000/svg" xmlns:xlink="http://www.w3.org/1999/xlink" width="300" height="80" viewBox="0 0 300 80"><defs><style>.a{fill:#fff;}.b{fill:#ff0048;}.c{fill:url(#a);}.d{mask:url(#b);}.e{fill:#1111f8;}.f{fill:#11f;}</style><linearGradient id="a" x1="1.74" y1="-997.69" x2="48.58" y2="-997.69" gradientTransform="matrix(1, 0, 0, -1, 0, -958)" gradientUnits="userSpaceOnUse"><stop offset="0" stop-color="#fae4ea"/><stop offset="1" stop-color="#f5f5ff"/></linearGradient><mask id="b" x="-6.81" y="8.15" width="63.87" height="62.85" maskUnits="userSpaceOnUse"><ellipse class="a" cx="25.16" cy="39.69" rx="23.42" ry="23.05"/></mask></defs><title>repo-headers</title><ellipse class="b" cx="23.42" cy="42.25" rx="23.42" ry="23.05"/><ellipse class="c" cx="25.16" cy="39.69" rx="23.42" ry="23.05"/><g class="d"><polygon class="e" points="23.86 71 22.63 69.79 55.83 37.12 57.05 38.33 23.86 71"/><polygon class="e" points="18.95 66.17 17.72 64.96 50.92 32.3 52.15 33.5 18.95 66.17"/><polygon class="e" points="14.04 61.34 12.81 60.14 46.01 27.47 47.24 28.67 14.04 61.34"/><polygon class="e" points="9.13 56.51 7.91 55.31 41.11 22.64 42.33 23.84 9.13 56.51"/><polygon class="e" points="4.23 51.69 3 50.48 36.2 17.81 37.43 19.02 4.23 51.69"/><polygon class="e" points="-0.68 46.86 -1.91 45.65 31.29 12.98 32.52 14.19 -0.68 46.86"/><polygon class="e" points="-5.59 42.03 -6.82 40.82 26.39 8.15 27.61 9.36 -5.59 42.03"/></g><rect class="f" x="61" y="18" width="41" height="19" rx="4.27"/><path class="a" d="M67.69,32.77l3.43-10.66h3.13l3.42,10.66H74.94l-.69-2.46H70.94l-.69,2.46Zm4.86-8.37-1.13,4.06h2.37L72.67,24.4Z"/><path class="a" d="M87.89,25.8a3.48,3.48,0,0,1-3.76,3.66h-1.9v3.31H79.67V22.11h4.5A3.49,3.49,0,0,1,87.89,25.8Zm-4.32-1.72H82.22v3.45h1.35a1.59,1.59,0,0,0,1.72-1.73A1.57,1.57,0,0,0,83.57,24.08Z"/><path class="a" d="M90.13,32.77V22.11H92.7V32.77Z"/><path d="M61.23,55.38c0-1.85,1.29-3.08,3.69-3.08h2.53v-.93c0-1-.67-1.54-1.73-1.54s-1.55.46-1.68,1.1H61.61c.12-1.7,1.33-3.07,4.17-3.07,2.32,0,4.22.94,4.22,3.57v7H67.57V57.07h-.12a3,3,0,0,1-2.81,1.48A3.1,3.1,0,0,1,61.23,55.38Zm6.22-.46V53.85h-2c-1.14,0-1.68.58-1.68,1.37a1.5,1.5,0,0,0,1.69,1.43A1.83,1.83,0,0,0,67.45,54.92Z"/><path d="M75.69,56.81h-.12v5H73V48h2.53v1.65h.13a3,3,0,0,1,3-1.78c2.4,0,3.86,1.73,3.86,4.61v1.41c0,2.88-1.47,4.62-3.9,4.62A3,3,0,0,1,75.69,56.81Zm4.21-3.14v-.9c0-1.8-.78-2.83-2.17-2.83s-2.16,1-2.16,2.66V54a2.24,2.24,0,0,0,2.19,2.53C79.12,56.48,79.9,55.45,79.9,53.67Z"/><path d="M86.61,43.54A1.44,1.44,0,1,1,85,45,1.45,1.45,0,0,1,86.61,43.54ZM85.33,48H87.9V58.39H85.33Z"/><path d="M92.62,55.27A1.66,1.66,0,1,1,90.92,57,1.62,1.62,0,0,1,92.62,55.27Z"/><path d="M97.26,44.36h2.58v14H97.26Z"/><path d="M112,52.6v1.16c0,3.08-1.89,4.82-4.72,4.82s-4.76-1.72-4.76-4.82V52.62a4.5,4.5,0,0,1,4.76-4.78A4.44,4.44,0,0,1,112,52.6Zm-6.88.07v1.07c0,1.56.67,2.84,2.16,2.84s2.12-1.27,2.12-2.84V52.67c0-1.57-.7-2.83-2.12-2.83S105.08,51.11,105.08,52.67Z"/><path d="M114,55.38c0-1.85,1.29-3.08,3.69-3.08h2.53v-.93c0-1-.67-1.54-1.73-1.54s-1.55.46-1.67,1.1h-2.44c.12-1.7,1.33-3.07,4.17-3.07,2.33,0,4.22.94,4.22,3.57v7h-2.43V57.07h-.12a3,3,0,0,1-2.81,1.48A3.1,3.1,0,0,1,114,55.38Zm6.22-.46V53.85h-2c-1.14,0-1.68.58-1.68,1.37a1.5,1.5,0,0,0,1.69,1.43A1.83,1.83,0,0,0,120.23,54.92Z"/><path d="M125.84,44.36h2.58v14h-2.58Z"/><path d="M131,55.38c0-1.85,1.29-3.08,3.7-3.08h2.53v-.93c0-1-.68-1.54-1.73-1.54s-1.56.46-1.68,1.1H131.4c.11-1.7,1.32-3.07,4.17-3.07,2.32,0,4.21.94,4.21,3.57v7h-2.43V57.07h-.11a3,3,0,0,1-2.82,1.48A3.1,3.1,0,0,1,131,55.38Zm6.23-.46V53.85h-2c-1.14,0-1.68.58-1.68,1.37a1.5,1.5,0,0,0,1.69,1.43A1.83,1.83,0,0,0,137.24,54.92Z"/><path d="M142.77,48h2.51v1.83h.13a2.93,2.93,0,0,1,3.09-2c2.08,0,3.45,1.19,3.45,3.59v6.94h-2.57V52.17c0-1.53-.81-2.15-1.86-2.15-1.39,0-2.18,1.07-2.18,2.63v5.74h-2.57Z"/><path d="M161.4,58V56.58h-.13a3,3,0,0,1-2.9,1.62c-2.28,0-3.93-1.64-3.93-4.58V52.49c0-3,1.64-4.6,3.93-4.6a3,3,0,0,1,2.95,1.73h.13V48H164V58.19c0,3-2.34,4-4.89,4-3,0-4.31-1.43-4.41-3h2.5c.13.67.89,1.12,2,1.12A2,2,0,0,0,161.4,58Zm-4.32-5.33v.81c0,1.71.92,2.75,2.22,2.75s2.1-1.1,2.1-2.56V52.53c0-1.47-.8-2.59-2.11-2.59S157.08,51,157.08,52.71Z"/><path d="M168.41,55.27a1.66,1.66,0,1,1,0,3.32,1.66,1.66,0,1,1,0-3.32Z"/><path d="M176.85,54.89h-.1l-2,3.5H172l3.23-5.14L171.88,48h3l2,3.49h.1L179,48h2.84l-3.4,5.11,3.35,5.25h-2.89Z"/><path d="M189.67,58.1l-.24.61c-.89,2.38-2.14,3.31-4.36,3.31a7.68,7.68,0,0,1-1.37-.1V60.05a6.18,6.18,0,0,0,.83.06c1.16,0,1.74-.41,1.93-1.43l.07-.27L182.94,48h2.84L188,56.17h.11L190.34,48h2.73C192.34,50.37,189.69,58,189.67,58.1Z"/><path d="M194.71,56.94l4.95-6.76v-.13h-4.9V48h8v1.6L198,56.24v.12h4.93v2h-8.19Z"/></svg>