<svg xmlns="http://www.w3.org/2000/svg" xmlns:xlink="http://www.w3.org/1999/xlink" width="300" height="80" viewBox="0 0 300 80"><defs><style>.a{fill:#fff;}.b{fill:#ff0048;}.c{fill:url(#a);}.d{mask:url(#b);}.e{fill:#1111f8;}.f{fill:#11f;}</style><linearGradient id="a" x1="1.74" y1="-377.69" x2="48.58" y2="-377.69" gradientTransform="matrix(1, 0, 0, -1, 0, -338)" gradientUnits="userSpaceOnUse"><stop offset="0" stop-color="#fae4ea"/><stop offset="1" stop-color="#f5f5ff"/></linearGradient><mask id="b" x="-6.81" y="8.15" width="63.87" height="62.85" maskUnits="userSpaceOnUse"><ellipse class="a" cx="25.16" cy="39.69" rx="23.42" ry="23.05"/></mask></defs><title>repo-headers</title><ellipse class="b" cx="23.42" cy="42.25" rx="23.42" ry="23.05"/><ellipse class="c" cx="25.16" cy="39.69" rx="23.42" ry="23.05"/><g class="d"><polygon class="e" points="23.86 71 22.63 69.79 55.83 37.12 57.05 38.33 23.86 71"/><polygon class="e" points="18.95 66.17 17.72 64.96 50.92 32.3 52.15 33.5 18.95 66.17"/><polygon class="e" points="14.04 61.34 12.81 60.14 46.01 27.47 47.24 28.67 14.04 61.34"/><polygon class="e" points="9.13 56.51 7.91 55.31 41.11 22.64 42.33 23.84 9.13 56.51"/><polygon class="e" points="4.23 51.69 3 50.48 36.2 17.81 37.43 19.02 4.23 51.69"/><polygon class="e" points="-0.68 46.86 -1.91 45.65 31.29 12.98 32.52 14.19 -0.68 46.86"/><polygon class="e" points="-5.59 42.03 -6.82 40.82 26.39 8.15 27.61 9.36 -5.59 42.03"/></g><rect class="f" x="61" y="18" width="58" height="19" rx="4.27"/><path class="a" d="M70.37,32.77,67.63,22.11h2.71l1.37,7.25h.12l1.75-7.25h2.09l1.75,7.25h.12l1.36-7.25h2.71L78.87,32.77H76.48l-1.81-6.83h-.09l-1.82,6.83Z"/><path class="a" d="M85.56,32.77,82.81,22.11h2.71l1.37,7.25H87l1.74-7.25h2.09l1.75,7.25h.13l1.35-7.25h2.71L94.06,32.77H91.67l-1.82-6.83h-.09L88,32.77Z"/><path class="a" d="M100.74,32.77,98,22.11h2.71l1.36,7.25h.13l1.74-7.25H106l1.75,7.25h.12l1.35-7.25H112l-2.73,10.66h-2.39L105,25.94h-.1l-1.81,6.83Z"/><path d="M61.83,44.36h2.58v14H61.83Z"/><path d="M76.53,52.6v1.16c0,3.08-1.89,4.82-4.72,4.82s-4.76-1.72-4.76-4.82V52.62a4.5,4.5,0,0,1,4.76-4.78A4.44,4.44,0,0,1,76.53,52.6Zm-6.88.07v1.07c0,1.56.67,2.84,2.16,2.84s2.12-1.27,2.12-2.84V52.67c0-1.57-.7-2.83-2.12-2.83S69.65,51.11,69.65,52.67Z"/><path d="M78.58,55.38c0-1.85,1.29-3.08,3.69-3.08H84.8v-.93c0-1-.67-1.54-1.72-1.54s-1.56.46-1.68,1.1H79c.12-1.7,1.33-3.07,4.17-3.07,2.33,0,4.22.94,4.22,3.57v7H84.92V57.07H84.8A3,3,0,0,1,82,58.55,3.1,3.1,0,0,1,78.58,55.38Zm6.22-.46V53.85h-2c-1.14,0-1.68.58-1.68,1.37a1.5,1.5,0,0,0,1.69,1.43A1.83,1.83,0,0,0,84.8,54.92Z"/><path d="M90.41,44.36H93v14H90.41Z"/><path d="M95.58,55.38c0-1.85,1.29-3.08,3.7-3.08h2.53v-.93c0-1-.68-1.54-1.73-1.54s-1.56.46-1.68,1.1H96c.11-1.7,1.32-3.07,4.17-3.07,2.32,0,4.21.94,4.21,3.57v7h-2.43V57.07h-.11A3,3,0,0,1,99,58.55,3.1,3.1,0,0,1,95.58,55.38Zm6.23-.46V53.85h-2c-1.14,0-1.68.58-1.68,1.37a1.5,1.5,0,0,0,1.69,1.43A1.83,1.83,0,0,0,101.81,54.92Z"/><path d="M107.34,48h2.51v1.83H110a2.93,2.93,0,0,1,3.09-2c2.08,0,3.45,1.19,3.45,3.59v6.94H114V52.17c0-1.53-.81-2.15-1.86-2.15-1.39,0-2.18,1.07-2.18,2.63v5.74h-2.57Z"/><path d="M126,58V56.58h-.13a3,3,0,0,1-2.9,1.62c-2.28,0-3.93-1.64-3.93-4.58V52.49c0-3,1.64-4.6,3.93-4.6a3,3,0,0,1,3,1.73H126V48h2.52V58.19c0,3-2.34,4-4.89,4-3,0-4.31-1.43-4.41-3h2.5c.13.67.89,1.12,2,1.12A2,2,0,0,0,126,58Zm-4.32-5.33v.81c0,1.71.92,2.75,2.22,2.75s2.1-1.1,2.1-2.56V52.53c0-1.47-.8-2.59-2.11-2.59S121.65,51,121.65,52.71Z"/><path d="M133,55.27a1.66,1.66,0,1,1,0,3.32,1.66,1.66,0,1,1,0-3.32Z"/><path d="M141.42,54.89h-.1l-2,3.5h-2.75l3.23-5.14L136.45,48h3l2,3.49h.1l2-3.49h2.85L143,53.14l3.35,5.25h-2.89Z"/><path d="M154.24,58.1l-.24.61c-.89,2.38-2.14,3.31-4.36,3.31a7.68,7.68,0,0,1-1.37-.1V60.05a6.18,6.18,0,0,0,.83.06c1.16,0,1.74-.41,1.94-1.43l.06-.27L147.51,48h2.84l2.21,8.14h.11L154.91,48h2.73C156.91,50.37,154.26,58,154.24,58.1Z"/><path d="M159.28,56.94l4.95-6.76v-.13h-4.9V48h8v1.6l-4.8,6.61v.12h4.93v2h-8.19Z"/></svg>